<svg width="24" height="33" viewBox="0 0 24 33" fill="none" xmlns="http://www.w3.org/2000/svg">
<path d="M20.1144 8.15947H19.0414V3.73255C19.0414 2.65409 18.1194 1.77657 16.9863 1.77657H16.332V0.75531H16.9863C18.7112 0.75531 20.1144 2.09087 20.1144 3.73255V8.15947Z" fill="#40CD80"/>
<path d="M4.95973 8.15947H3.88672V3.73255C3.88672 2.09087 5.28995 0.75531 7.01481 0.75531H7.66908V1.77657H7.01481C5.88171 1.77657 4.95973 2.65409 4.95973 3.73255V8.15947Z" fill="#40CD80"/>
<path d="M14.7352 2.03189H9.26179C8.81729 2.03189 8.45703 1.68901 8.45703 1.26595C8.45703 0.842889 8.81729 0.5 9.26179 0.5H14.7352C15.1797 0.5 15.54 0.842889 15.54 1.26595C15.54 1.68901 15.1797 2.03189 14.7352 2.03189Z" fill="#40CD80"/>
<path d="M5 30.7128V31.4787C5 32.0427 5.48044 32.5 6.07301 32.5C6.66558 32.5 7.14602 32.0427 7.14602 31.4787V30.7128H5Z" fill="#40CD80"/>
<path d="M16.8555 30.7128V31.4787C16.8555 32.0427 17.3359 32.5 17.9285 32.5C18.521 32.5 19.0015 32.0427 19.0015 31.4787V30.7128H16.8555Z" fill="#40CD80"/>
<path d="M20.6509 7.18109H3.34913C1.49953 7.18109 0 8.60831 0 10.3687V26.8442C0 28.6046 1.49953 30.0319 3.34913 30.0319H7.75088C9.36389 30.0319 10.7078 28.8556 10.8428 27.3255L11.7181 17.393L9.34457 19.652L8.20584 19.0012L8.88961 20.085L7.76966 21.1509L6.63093 20.5001L7.3147 21.584L4.96133 23.8239C3.86391 22.7794 4.49564 20.4963 6.36482 18.7173C6.98958 18.1226 7.67336 17.6631 8.34801 17.349L8.03469 16.1549L7.71306 17.3815H6.1293L5.80766 16.1549L5.48603 17.3815H2.15782C2.15782 15.9042 4.30062 14.7149 6.94398 14.7149C7.8276 14.7149 8.65221 14.8503 9.36281 15.0823L10.0286 14.0271L8.88988 14.6779L7.76993 13.612L8.4537 12.5282L7.31497 13.179L4.9616 10.9391C6.05902 9.89459 8.45773 10.4959 10.3269 12.2749C11.122 13.0317 11.6904 13.8793 12 14.6843C12.3093 13.8793 12.878 13.0317 13.6731 12.2749C15.5423 10.4959 17.941 9.89459 19.0384 10.9391L16.685 13.179L15.5463 12.5282L16.2301 13.612L15.1101 14.6779L13.9714 14.0271L14.6372 15.0823C15.3475 14.8503 16.1724 14.7149 17.056 14.7149C19.6994 14.7149 21.8422 15.9042 21.8422 17.3815H18.514L18.1923 16.1549L17.8707 17.3815H16.2869L15.9653 16.1549L15.652 17.349C16.3266 17.6631 17.0104 18.1226 17.6352 18.7173C19.5044 20.4963 20.1361 22.7794 19.0387 23.8239L16.6853 21.584L17.3691 20.5001L16.2303 21.1509L15.1104 20.085L15.7942 19.0012L14.6554 19.652L12.2819 17.393L13.1572 27.3255C13.2922 28.8554 14.6361 30.0319 16.2491 30.0319H20.6509C22.5005 30.0319 24 28.6046 24 26.8442V10.3687C24 8.60831 22.5005 7.18109 20.6509 7.18109Z" fill="#40CD80"/>
</svg>
