<svg width="80" height="80" viewBox="0 0 80 80" fill="none" xmlns="http://www.w3.org/2000/svg">
<path d="M30.972 23.4287C31.2216 23.3931 31.4618 23.3086 31.6788 23.1802C31.8958 23.0517 32.0853 22.8818 32.2366 22.6801C32.388 22.4784 32.4981 22.2489 32.5607 22.0046C32.6233 21.7603 32.6372 21.5061 32.6015 21.2565C32.5659 21.0069 32.4814 20.7667 32.353 20.5498C32.2245 20.3328 32.0546 20.1432 31.8529 19.9919C31.6511 19.8406 31.4216 19.7305 31.1773 19.6679C30.9331 19.6053 30.6789 19.5914 30.4292 19.6271C27.6068 20.0332 24.9531 21.2167 22.7652 23.0452C20.5772 24.8737 18.9413 27.275 18.0406 29.9803C17.1398 32.6857 17.0098 35.5883 17.665 38.3634C18.3202 41.1384 19.7349 43.6764 21.7506 45.6932C23.7663 47.71 26.3035 49.126 29.0783 49.7829C31.853 50.4397 34.7559 50.3114 37.4619 49.4122C40.1679 48.5131 42.5702 46.8787 44.4001 44.6919C46.2299 42.5051 47.4151 39.8522 47.8229 37.0302C47.8948 36.5261 47.7636 36.014 47.458 35.6066C47.1524 35.1993 46.6975 34.93 46.1933 34.858C45.6892 34.786 45.1771 34.9173 44.7697 35.2229C44.3623 35.5284 44.093 35.9833 44.021 36.4875C43.7146 38.6037 42.8252 40.5929 41.4526 42.2326C40.0799 43.8722 38.2781 45.0975 36.2487 45.7715C34.2192 46.4454 32.0423 46.5414 29.9614 46.0486C27.8806 45.5559 25.9779 44.4939 24.4663 42.9814C22.9546 41.469 21.8937 39.5657 21.4021 37.4847C20.9106 35.4036 21.0079 33.2268 21.683 31.1979C22.3582 29.1689 23.5847 27.3679 25.2251 25.9963C26.8656 24.6246 28.8555 23.7339 30.972 23.4287ZM37.7384 20.3464C37.2581 20.1767 36.7299 20.2047 36.2702 20.4244C35.8105 20.644 35.4569 21.0373 35.2871 21.5176C35.1174 21.998 35.1454 22.5261 35.3651 22.9858C35.5847 23.4455 35.978 23.7991 36.4584 23.9689C37.229 24.2402 37.9637 24.591 38.6499 25.0134C38.8646 25.1533 39.1052 25.2487 39.3574 25.2942C39.6096 25.3396 39.8684 25.3341 40.1185 25.278C40.3686 25.2218 40.6048 25.1162 40.8134 24.9673C41.022 24.8184 41.1987 24.6292 41.3331 24.411C41.4674 24.1927 41.5567 23.9498 41.5956 23.6965C41.6346 23.4432 41.6225 23.1847 41.56 22.9361C41.4974 22.6876 41.3858 22.4541 41.2316 22.2494C41.0774 22.0447 40.8838 21.8729 40.6621 21.7442C39.7398 21.1761 38.7598 20.7075 37.7384 20.3464ZM45.7133 26.7977C45.5846 26.5761 45.4128 26.3825 45.2081 26.2283C45.0034 26.0741 44.7699 25.9625 44.5213 25.8999C44.2728 25.8374 44.0142 25.8253 43.7609 25.8643C43.5076 25.9032 43.2647 25.9925 43.0464 26.1268C42.8282 26.2612 42.639 26.4378 42.4901 26.6464C42.3412 26.855 42.2356 27.0913 42.1794 27.3414C42.1233 27.5914 42.1178 27.8502 42.1632 28.1024C42.2086 28.3546 42.3041 28.5952 42.444 28.8099C42.8639 29.4909 43.212 30.2205 43.4834 30.9859C43.6591 31.4581 44.0134 31.8423 44.4698 32.0556C44.9261 32.269 45.4481 32.2944 45.9231 32.1265C46.398 31.9585 46.788 31.6106 47.0088 31.1578C47.2296 30.705 47.2636 30.1836 47.1035 29.7059C46.7439 28.6902 46.2779 27.7154 45.7133 26.7977ZM32.6182 29.0736C32.6182 28.5644 32.4159 28.076 32.0558 27.7159C31.6957 27.3559 31.2073 27.1536 30.6981 27.1536C30.1888 27.1536 29.7004 27.3559 29.3403 27.7159C28.9802 28.076 28.7779 28.5644 28.7779 29.0736V36.7537C28.7779 37.8136 29.6382 38.6737 30.6981 38.6737H35.8183C36.3276 38.6737 36.816 38.4715 37.1761 38.1114C37.5362 37.7513 37.7384 37.2629 37.7384 36.7537C37.7384 36.2445 37.5362 35.7561 37.1761 35.396C36.816 35.036 36.3276 34.8337 35.8183 34.8337H32.6182V29.0736Z" fill="white"/>
<path d="M60.0495 46.9934L60.2504 46.9532C60.6631 46.8706 61.0333 46.6504 61.2988 46.3309C61.5642 46.0115 61.7088 45.6123 61.7091 45.201V42.0391C61.7091 41.5659 61.518 41.1112 61.1766 40.7754C60.8351 40.4394 60.371 40.2499 59.8862 40.2499H35.0123C34.5275 40.2499 34.0634 40.4394 33.7219 40.7754C33.3805 41.1112 33.1895 41.5659 33.1895 42.0391L33.1895 45.201L33.1895 45.2012M60.0495 46.9934L34.599 47.1983C34.1308 47.1046 33.7099 46.8546 33.4075 46.4907C33.105 46.1268 32.9397 45.6712 32.9395 45.2012H33.1895M60.0495 46.9934V47.0056M60.0495 46.9934V47.0056M33.1895 45.2012C33.1897 45.6124 33.3344 46.0115 33.5997 46.3309C33.8652 46.6504 34.2354 46.8706 34.6481 46.9532L34.649 46.9534C35.4045 47.1075 36.0837 47.5132 36.5718 48.1032C37.0599 48.6932 37.3269 49.4314 37.3269 50.1934C37.3269 50.9554 37.0599 51.6936 36.5718 52.2836C36.0837 52.8736 35.4045 53.2793 34.649 53.4335L34.6481 53.4336C34.2346 53.5164 33.8639 53.7372 33.5983 54.0576C33.3328 54.378 33.1886 54.7782 33.1895 55.1903L33.1895 55.1908L33.1895 58.3528C33.1895 58.826 33.3805 59.2807 33.7219 59.6165C34.0634 59.9525 34.5275 60.142 35.0123 60.142H59.8862C60.371 60.142 60.8351 59.9526 61.1766 59.6165C61.518 59.2807 61.7091 58.826 61.7091 58.3528V55.1909C61.7088 54.7796 61.5642 54.3804 61.2988 54.061C61.0333 53.7415 60.6631 53.5213 60.2504 53.4387L60.2495 53.4386C59.4941 53.2844 58.8148 52.8787 58.3268 52.2887C57.8386 51.6987 57.5716 50.9605 57.5716 50.1985C57.5716 49.4365 57.8386 48.6983 58.3268 48.1083C58.7714 47.5709 59.3745 47.1863 60.0495 47.0056M33.1895 45.2012L60.0495 47.0056M33.5466 59.7948C33.9353 60.1772 34.4625 60.392 35.0123 60.392H59.8862C60.436 60.392 60.9632 60.1772 61.3519 59.7948C61.7407 59.4123 61.9591 58.8937 61.9591 58.3528V55.1908C61.9588 54.7207 61.7935 54.2652 61.4911 53.9012C61.1886 53.5373 60.7677 53.2873 60.2995 53.1936C59.5994 53.0508 58.9707 52.6749 58.5194 52.1294C58.068 51.5838 57.8216 50.9019 57.8216 50.1985C57.8216 49.4951 58.068 48.8132 58.5194 48.2676C58.9707 47.7221 59.5994 47.3462 60.2995 47.2034L33.5466 59.7948ZM33.5466 59.7948C33.1578 59.4123 32.9395 58.8937 32.9395 58.3528V55.1908L33.5466 59.7948ZM34.9632 54.9469L34.7623 54.9872V55.192V58.3528V58.6028H35.0123H42.2672H42.5172V58.3528V42.0391V41.7891H42.2672H35.0123H34.7623V42.0391V45.2012V45.406L34.9632 45.4463C36.0784 45.6698 37.08 46.2654 37.7989 47.1312C38.5178 47.997 38.91 49.0799 38.91 50.1966C38.91 51.3133 38.5178 52.3962 37.7989 53.262C37.08 54.1278 36.0784 54.7234 34.9632 54.9469Z" fill="white" stroke="black" stroke-width="0.5"/>
<circle cx="40" cy="40" r="39.5" stroke="white"/>
</svg>
