<svg width="80" height="80" viewBox="0 0 80 80" fill="none" xmlns="http://www.w3.org/2000/svg">
<path d="M36.3926 59.0922V47.6922L39.1926 39.6922C39.3592 39.3255 39.6012 39.0175 39.9186 38.7682C40.2359 38.5189 40.6272 38.3935 41.0926 38.3922H55.6926C56.1592 38.3922 56.5512 38.5175 56.8686 38.7682C57.1859 39.0189 57.4272 39.3269 57.5926 39.6922L60.3926 47.6922V59.0922C60.3926 59.4589 60.2679 59.7675 60.0186 60.0182C59.7692 60.2689 59.4606 60.3935 59.0926 60.3922H57.6926C57.3259 60.3922 57.0179 60.2675 56.7686 60.0182C56.5192 59.7689 56.3939 59.4602 56.3926 59.0922V57.3922H40.3926V59.0922C40.3926 59.4589 40.2679 59.7675 40.0186 60.0182C39.7692 60.2689 39.4606 60.3935 39.0926 60.3922H37.6926C37.3259 60.3922 37.0179 60.2675 36.7686 60.0182C36.5192 59.7689 36.3939 59.4602 36.3926 59.0922ZM40.3926 45.3922H56.3926L54.9926 41.3922H41.7926L40.3926 45.3922ZM42.3926 53.3922C42.9592 53.3922 43.4346 53.2002 43.8186 52.8162C44.2026 52.4322 44.3939 51.9575 44.3926 51.3922C44.3926 50.8255 44.2006 50.3509 43.8166 49.9682C43.4326 49.5855 42.9579 49.3935 42.3926 49.3922C41.8259 49.3922 41.3512 49.5842 40.9686 49.9682C40.5859 50.3522 40.3939 50.8269 40.3926 51.3922C40.3926 51.9589 40.5846 52.4342 40.9686 52.8182C41.3526 53.2022 41.8272 53.3935 42.3926 53.3922ZM54.3926 53.3922C54.9592 53.3922 55.4346 53.2002 55.8186 52.8162C56.2026 52.4322 56.3939 51.9575 56.3926 51.3922C56.3926 50.8255 56.2006 50.3509 55.8166 49.9682C55.4326 49.5855 54.9579 49.3935 54.3926 49.3922C53.8259 49.3922 53.3512 49.5842 52.9686 49.9682C52.5859 50.3522 52.3939 50.8269 52.3926 51.3922C52.3926 51.9589 52.5846 52.4342 52.9686 52.8182C53.3526 53.2022 53.8272 53.3935 54.3926 53.3922ZM28.3926 44.3922V40.3922H32.3926V44.3922H28.3926ZM38.3926 32.3922V28.3922H42.3926V32.3922H38.3926ZM28.3926 52.3922V48.3922H32.3926V52.3922H28.3926ZM28.3926 60.3922V56.3922H32.3926V60.3922H28.3926ZM20.3926 60.3922V32.3922H30.3926V20.3922H50.3926V34.3922H46.3926V24.3922H34.3926V36.3922H24.3926V60.3922H20.3926Z" fill="white"/>
<circle cx="40" cy="40" r="39.5" stroke="white"/>
</svg>
