<svg width="80" height="80" viewBox="0 0 80 80" fill="none" xmlns="http://www.w3.org/2000/svg">
<path d="M58.8231 36.071H57.1819C56.7878 31.7852 54.8071 27.8012 51.6284 24.9006C48.4497 22 44.3022 20.392 39.9996 20.392C35.6969 20.392 31.5495 22 28.3708 24.9006C25.192 27.8012 23.2114 31.7852 22.8172 36.071H21.176C20.76 36.071 20.361 36.2364 20.0669 36.5306C19.7727 36.8249 19.6074 37.224 19.6074 37.6401C19.6143 41.3717 20.6409 45.0304 22.5763 48.2205C24.5116 51.4106 27.282 54.0108 30.5878 55.7398V56.4694C30.5878 57.3017 30.9183 58.1 31.5067 58.6885C32.095 59.277 32.893 59.6077 33.7251 59.6077H46.2741C47.1061 59.6077 47.9041 59.277 48.4925 58.6885C49.0808 58.1 49.4113 57.3017 49.4113 56.4694V55.7398C52.7172 54.0108 55.4876 51.4106 57.4229 48.2205C59.3582 45.0304 60.3848 41.3717 60.3917 37.6401C60.3917 37.224 60.2265 36.8249 59.9323 36.5306C59.6381 36.2364 59.2391 36.071 58.8231 36.071ZM48.9172 26.7015C49.2767 26.9957 49.6212 27.3063 49.9506 27.6332C45.7748 29.1025 42.3241 32.1224 40.3133 36.0671H34.529C35.5094 33.3181 37.3144 30.9389 39.6973 29.2545C42.0802 27.5702 44.9249 26.6628 47.8427 26.6564C48.2015 26.6564 48.5604 26.674 48.9172 26.7015ZM43.9447 36.071C45.8465 33.217 48.7237 31.1549 52.0368 30.2712C53.1201 32.0338 53.7998 34.0145 54.027 36.071H43.9447ZM39.9996 23.5182C41.2583 23.519 42.5113 23.6885 43.7251 24.0223C40.7691 24.7558 38.0586 26.2558 35.8668 28.3711C33.675 30.4864 32.0794 33.1423 31.2408 36.071H25.9721C26.3612 32.6207 28.0061 29.4342 30.5931 27.1192C33.1802 24.8041 36.5284 23.5223 39.9996 23.5182Z" fill="white"/>
<circle cx="40" cy="40" r="39.5" stroke="white"/>
</svg>
