<svg width="80" height="80" viewBox="0 0 80 80" fill="none" xmlns="http://www.w3.org/2000/svg">
<path d="M39.6083 22.7451C34.8704 22.7451 31.0299 26.6076 31.0299 31.3726C31.0299 36.1375 34.8704 40 39.6083 40C44.3462 40 48.1867 36.1375 48.1867 31.3726C48.1867 26.6076 44.3462 22.7451 39.6083 22.7451ZM29.5286 43.451C28.5619 43.451 27.6347 43.8372 26.951 44.5246C26.2673 45.2121 25.883 46.1445 25.8828 47.1168V47.7647C25.8828 51.0043 27.5487 53.4304 30.1034 54.9945C32.6169 56.5328 35.9934 57.2549 39.6083 57.2549C43.2233 57.2549 46.5997 56.5328 49.1132 54.9945C51.6679 53.4304 53.3338 51.0043 53.3338 47.7647V47.1168C53.3338 46.6353 53.2395 46.1586 53.0563 45.7138C52.873 45.2689 52.6045 44.8648 52.2659 44.5244C51.9273 44.184 51.5254 43.914 51.0831 43.7298C50.6408 43.5456 50.1667 43.4509 49.688 43.451H29.5286Z" fill="white"/>
<path d="M45.8039 55.1771L45.6286 55.1152L45.4555 55.1828L40.9962 56.9233C40.8582 56.9746 40.7637 56.9597 40.6559 56.885C40.5483 56.8103 40.5 56.7256 40.5 56.5729V42.6491C40.5 42.5312 40.5272 42.433 40.5786 42.3441C40.6149 42.2824 40.6615 42.2423 40.738 42.2148L45.6351 40.5295L52.2354 42.8621L52.4106 42.924L52.5838 42.8564L57.043 41.1159C57.1979 41.0583 57.3038 41.0743 57.4096 41.1382C57.5027 41.1945 57.5392 41.2524 57.5392 41.3786V55.4778C57.5392 55.5981 57.5084 55.6798 57.4592 55.7457L57.4577 55.7478C57.4047 55.8196 57.3338 55.8732 57.2255 55.9083L57.2219 55.9095L52.4069 57.5107L45.8039 55.1771ZM51.6721 57.1219L52.3382 57.3567V56.6504V43.331V42.977L52.0044 42.8594L46.3672 40.8729L45.701 40.6381V41.3445V54.6638V55.0178L46.0348 55.1354L51.6721 57.1219Z" fill="white" stroke="black"/>
<circle cx="40" cy="40" r="39.5" stroke="white"/>
</svg>
