<svg width="161" height="24" viewBox="0 0 161 24" fill="none" xmlns="http://www.w3.org/2000/svg">
<path d="M58.2336 0.00147642C59.1092 -0.00188373 59.9849 0.00691691 60.8603 0.0278756L61.0931 0.0362753C61.3619 0.045875 61.627 0.0578745 61.9474 0.072274C63.2242 0.132272 64.0953 0.333865 64.8597 0.630255C65.6516 0.935045 66.3188 1.34783 66.986 2.01501C67.596 2.61452 68.0681 3.3397 68.3695 4.14014C68.6659 4.90451 68.8675 5.77688 68.9275 7.05364C68.9419 7.37283 68.9539 7.63922 68.9635 7.90801L68.9707 8.1408C68.992 9.0158 69.0012 9.89106 68.9983 10.7663L68.9995 11.6615V13.2334C69.0024 14.1091 68.9932 14.9847 68.9719 15.8601L68.9647 16.0929C68.9551 16.3617 68.9431 16.6269 68.9287 16.9473C68.8687 18.2241 68.6647 19.0952 68.3695 19.8596C68.0691 20.6609 67.5968 21.3867 66.986 21.9859C66.386 22.5959 65.6604 23.068 64.8597 23.3695C64.0953 23.6659 63.2242 23.8675 61.9474 23.9275C61.627 23.9419 61.3619 23.9539 61.0931 23.9635L60.8603 23.9707C59.9849 23.992 59.1093 24.0012 58.2336 23.9983L57.3385 23.9995H55.7677C54.8921 24.0024 54.0165 23.9932 53.1411 23.9719L52.9083 23.9647C52.6234 23.9543 52.3386 23.9423 52.0539 23.9287C50.7772 23.8687 49.906 23.6647 49.1405 23.3695C48.3397 23.0687 47.6144 22.5965 47.0154 21.9859C46.4047 21.3863 45.9321 20.6606 45.6307 19.8596C45.3343 19.0952 45.1327 18.2241 45.0727 16.9473C45.0593 16.6626 45.0473 16.3778 45.0367 16.0929L45.0307 15.8601C45.0086 14.9847 44.9986 14.1091 45.0007 13.2334V10.7663C44.9973 9.89106 45.0061 9.01581 45.0271 8.1408L45.0355 7.90801C45.0451 7.63922 45.0571 7.37283 45.0715 7.05364C45.1315 5.77568 45.3331 4.90571 45.6295 4.14014C45.9311 3.33931 46.4046 2.61432 47.0166 2.01621C47.6152 1.40513 48.3401 0.932132 49.1405 0.630255C49.906 0.333865 50.776 0.132272 52.0539 0.072274L52.9083 0.0362753L53.1411 0.0302756C54.016 0.00816377 54.8913 -0.00183696 55.7665 0.000276552L58.2336 0.00147642ZM57.0001 6.00127C56.2051 5.99003 55.4159 6.1369 54.6782 6.43334C53.9405 6.72978 53.269 7.16989 52.7029 7.72808C52.1368 8.28627 51.6872 8.95142 51.3804 9.68486C51.0735 10.4183 50.9155 11.2054 50.9155 12.0005C50.9155 12.7955 51.0735 13.5826 51.3804 14.3161C51.6872 15.0495 52.1368 15.7147 52.7029 16.2729C53.269 16.831 53.9405 17.2712 54.6782 17.5676C55.4159 17.864 56.2051 18.0109 57.0001 17.9997C58.5913 17.9997 60.1173 17.3675 61.2425 16.2424C62.3677 15.1172 62.9998 13.5911 62.9998 11.9999C62.9998 10.4086 62.3677 8.88255 61.2425 7.75737C60.1173 6.63219 58.5913 6.00127 57.0001 6.00127ZM57.0001 8.40119C57.4783 8.39238 57.9534 8.47894 58.3978 8.65583C58.8421 8.83272 59.2468 9.09638 59.5881 9.43141C59.9294 9.76644 60.2005 10.1661 60.3856 10.6071C60.5707 11.0481 60.6661 11.5216 60.6662 11.9999C60.6663 12.4781 60.5711 12.9516 60.3861 13.3927C60.2011 13.8337 59.9301 14.2335 59.5889 14.5687C59.2477 14.9038 58.8432 15.1676 58.3989 15.3446C57.9546 15.5217 57.4795 15.6084 57.0013 15.5997C56.0465 15.5997 55.1309 15.2205 54.4558 14.5454C53.7807 13.8703 53.4015 12.9546 53.4015 11.9999C53.4015 11.0451 53.7807 10.1295 54.4558 9.45437C55.1309 8.77926 56.0465 8.39999 57.0013 8.39999L57.0001 8.40119ZM63.2998 4.20133C62.9126 4.21683 62.5465 4.38151 62.2781 4.66088C62.0097 4.94026 61.8598 5.31266 61.8598 5.70008C61.8598 6.08751 62.0097 6.45991 62.2781 6.73928C62.5465 7.01866 62.9126 7.18334 63.2998 7.19883C63.6976 7.19883 64.0791 7.0408 64.3604 6.75951C64.6417 6.47821 64.7997 6.09669 64.7997 5.69888C64.7997 5.30107 64.6417 4.91955 64.3604 4.63826C64.0791 4.35696 63.6976 4.19893 63.2998 4.19893V4.20133Z" fill="white"/>
<path d="M24 12.0301C24 5.38947 18.624 0 12 0C5.376 0 0 5.38947 0 12.0301C0 17.8526 4.128 22.7008 9.6 23.8195V15.6391H7.2V12.0301H9.6V9.02256C9.6 6.70075 11.484 4.81203 13.8 4.81203H16.8V8.42105H14.4C13.74 8.42105 13.2 8.96241 13.2 9.62406V12.0301H16.8V15.6391H13.2V24C19.26 23.3985 24 18.2737 24 12.0301Z" fill="white"/>
<path d="M156.195 3.76C155.195 2.7195 154.644 1.38324 154.644 0H150.125V16.5333C150.09 17.428 149.676 18.2755 148.969 18.8973C148.262 19.519 147.319 19.8665 146.337 19.8667C144.26 19.8667 142.534 18.32 142.534 16.4C142.534 14.1067 144.962 12.3867 147.463 13.0933V8.88C142.417 8.26667 138 11.84 138 16.4C138 20.84 142.037 24 146.322 24C150.915 24 154.644 20.6 154.644 16.4V8.01333C156.477 9.21313 158.677 9.85686 160.933 9.85333V5.73333C160.933 5.73333 158.184 5.85333 156.195 3.76Z" fill="white"/>
<path fill-rule="evenodd" clip-rule="evenodd" d="M103.333 0C104.473 0 105.643 0.0330001 106.776 0.0870001L108.115 0.159L109.396 0.2445L110.596 0.336L111.692 0.432C112.881 0.534417 114.001 1.10542 114.853 2.04456C115.705 2.9837 116.235 4.23081 116.351 5.5665L116.404 6.204L116.504 7.569C116.597 8.9835 116.667 10.5255 116.667 12C116.667 13.4745 116.597 15.0165 116.504 16.431L116.404 17.796C116.387 18.015 116.369 18.2265 116.351 18.4335C116.235 19.7694 115.705 21.0167 114.852 21.9559C114 22.8951 112.88 23.4659 111.691 23.568L110.597 23.6625L109.397 23.7555L108.115 23.841L106.776 23.913C105.629 23.9691 104.481 23.9981 103.333 24C102.185 23.9981 101.038 23.9691 99.8907 23.913L98.552 23.841L97.2707 23.7555L96.0707 23.6625L94.9747 23.568C93.7853 23.4656 92.6661 22.8946 91.814 21.9554C90.9619 21.0163 90.4314 19.7692 90.316 18.4335L90.2627 17.796L90.1627 16.431C90.0607 14.9567 90.0065 13.4787 90 12C90 10.5255 90.0693 8.9835 90.1627 7.569L90.2627 6.204C90.28 5.985 90.2973 5.7735 90.316 5.5665C90.4314 4.23105 90.9616 2.98412 91.8135 2.04501C92.6653 1.10591 93.7842 0.534754 94.9733 0.432L96.068 0.336L97.268 0.2445L98.5507 0.159L99.8893 0.0870001C101.037 0.0309494 102.185 0.00194293 103.333 0ZM100.667 8.3625V15.6375C100.667 16.3305 101.333 16.7625 101.867 16.4175L107.467 12.78C107.589 12.7011 107.69 12.5874 107.76 12.4505C107.83 12.3136 107.868 12.1582 107.868 12C107.868 11.8418 107.83 11.6864 107.76 11.5495C107.69 11.4126 107.589 11.2989 107.467 11.22L101.867 7.584C101.745 7.50498 101.607 7.4634 101.467 7.46342C101.326 7.46345 101.188 7.50508 101.066 7.58414C100.945 7.6632 100.844 7.7769 100.774 7.9138C100.703 8.0507 100.667 8.20597 100.667 8.364V8.3625Z" fill="white"/>
</svg>
