<svg width="48" height="47" viewBox="0 0 48 47" fill="none" xmlns="http://www.w3.org/2000/svg">
<path d="M40.8511 6.87076C38.6898 4.69856 36.1155 2.97628 33.2783 1.80438C30.4411 0.632481 27.3977 0.0344133 24.3258 0.0450616C11.4544 0.0450616 0.963983 10.483 0.963983 23.29C0.963983 27.3948 2.04838 31.3823 4.07574 34.9007L0.775391 46.9571L13.1517 43.7201C16.5699 45.5732 20.4125 46.5583 24.3258 46.5583C37.1971 46.5583 47.6875 36.1204 47.6875 23.3134C47.6875 17.0976 45.2594 11.257 40.8511 6.87076ZM24.3258 42.6177C20.8368 42.6177 17.4186 41.6795 14.4247 39.9203L13.7175 39.4981L6.36242 41.4215L8.31905 34.2908L7.84757 33.5637C5.9092 30.4838 4.87994 26.9239 4.87726 23.29C4.87726 12.6409 13.5996 3.96221 24.3022 3.96221C29.4885 3.96221 34.3683 5.97943 38.0222 9.63857C39.8315 11.4305 41.2653 13.562 42.2405 15.9094C43.2158 18.2567 43.7131 20.7734 43.7035 23.3134C43.7507 33.9624 35.0283 42.6177 24.3258 42.6177ZM34.9812 28.1688C34.3918 27.8873 31.5158 26.48 30.9972 26.2689C30.455 26.0812 30.0778 25.9874 29.677 26.5503C29.2763 27.1367 28.1683 28.4503 27.8383 28.8256C27.5082 29.2243 27.1546 29.2712 26.5653 28.9663C25.9759 28.6848 24.09 28.0515 21.8741 26.0812C20.1296 24.5331 18.9745 22.6332 18.6209 22.0468C18.2908 21.4604 18.5737 21.1555 18.8802 20.8505C19.1395 20.5925 19.4695 20.1703 19.7524 19.8419C20.0353 19.5135 20.1532 19.2555 20.3418 18.8802C20.5304 18.4815 20.4361 18.1531 20.2946 17.8716C20.1532 17.5902 18.9745 14.7285 18.503 13.5557C18.0315 12.4298 17.5365 12.5706 17.1829 12.5471H16.0513C15.6505 12.5471 15.0376 12.6878 14.4954 13.2742C13.9768 13.8606 12.4681 15.268 12.4681 18.1296C12.4681 20.9913 14.5661 23.7591 14.849 24.1344C15.1319 24.5331 18.9745 30.3971 24.8208 32.9069C26.2117 33.5168 27.2961 33.8686 28.1447 34.1266C29.5356 34.5723 30.8086 34.5019 31.8223 34.3612C32.9538 34.197 35.2876 32.9538 35.7591 31.5934C36.2542 30.2329 36.2542 29.0836 36.0892 28.8256C35.9241 28.5676 35.5705 28.4503 34.9812 28.1688Z" fill="white"/>
</svg>
